<svg width="800" height="600" xmlns="http://www.w3.org/2000/svg">
 <g>
  <title>Layer 1</title>
  <g id="svg_5">
   <g id="svg_2">
    <path id="svg_6" d="m70.1875,30.83984c0,-2.94141 -1.32813,-5.69922 -3.58984,-7.53125c0.09765,-0.46875 0.14453,-0.92187 0.14453,-1.36328c0,-3.66406 -2.70703,-6.71094 -6.22266,-7.23047c0.07813,-0.42187 0.11328,-0.83203 0.11328,-1.24609c0,-3.89844 -3.07031,-7.08594 -6.92187,-7.28907c-0.0625,-0.01171 -0.125,-0.01562 -0.19141,-0.01562c-0.03125,0 -0.0625,0 -0.09766,0.00391c-0.03125,-0.00391 -0.0625,-0.00391 -0.09375,-0.00391c-0.36718,0 -0.73437,0.03125 -1.125,0.09766c-0.67968,-3.58985 -3.80468,-6.26172 -7.55468,-6.26172c-4.24219,0 -7.70313,3.46093 -7.70313,7.71093l0,52.73438c0,5.375 4.375,9.75 9.75781,9.75c3.56641,0 6.80079,-1.92969 8.51563,-4.99609c0.37891,0.08203 0.75,0.13671 1.11719,0.15625c2.32422,0.15234 4.58593,-0.60938 6.33984,-2.15235c1.76172,-1.53906 2.8125,-3.67578 2.96484,-6.00781c0.0625,-0.97656 -0.04687,-1.94922 -0.32421,-2.91406c3.03515,-2.14844 4.82421,-5.5625 4.82421,-9.29688c0,-2.70703 -0.98046,-5.30469 -2.76171,-7.375c1.79296,-1.8164 2.80859,-4.24219 2.80859,-6.76953zm-2.44922,14.15234c0,2.78516 -1.26562,5.34375 -3.4375,7.05079c-1.60547,-2.5586 -4.45312,-4.1875 -7.54297,-4.1875c-0.66015,0 -1.19531,0.53515 -1.19531,1.19921c0,0.66016 0.53516,1.20313 1.19531,1.20313c2.67969,0 5.10938,1.67187 6.07031,4.16406c0.32813,0.8711 0.47266,1.75 0.41407,2.61719c-0.10938,1.69141 -0.875,3.24219 -2.14453,4.35937c-1.27735,1.11719 -2.91797,1.67579 -4.60547,1.56641c-0.47266,-0.03125 -0.96094,-0.13672 -1.54688,-0.32422c-0.58594,-0.1914 -1.23437,0.10156 -1.47265,0.67188c-1.15625,2.72656 -3.81641,4.48437 -6.77735,4.48437c-4.05078,0 -7.34765,-3.30078 -7.34765,-7.35156l0,-52.73438c0,-2.92968 2.3789,-5.30859 5.30078,-5.30859c2.71875,0 4.96093,2.05078 5.25,4.73047c-2.20313,1.25781 -3.69141,3.625 -3.69141,6.33594c0,0.66406 0.53516,1.19922 1.20313,1.19922c0.66015,0 1.19921,-0.53516 1.19921,-1.19922c0,-2.67578 2.14844,-4.85157 4.8125,-4.90625c2.66016,0.05468 4.8125,2.23047 4.8125,4.90625c0,0.49609 -0.09375,1.01172 -0.28906,1.57812c-0.04687,0.13281 -0.0664,0.27344 -0.0625,0.41406c0,0.03125 0,0.0625 0.00781,0.08594c-0.00781,0.02344 -0.01171,0.03125 -0.01171,0.03125c-0.09375,0.3711 -0.00391,0.76563 0.23828,1.0625c0.24609,0.29297 0.61718,0.45313 1,0.42969c0.08593,-0.00781 0.16797,-0.01563 0.32031,-0.03906c2.70312,0 4.90625,2.20312 4.90625,4.91406c0,0.45703 -0.08594,0.92578 -0.25781,1.47656c-0.16016,0.50781 0.03125,1.0625 0.47656,1.35938c1.94141,1.3125 3.125,3.46484 3.20703,5.79297c0,0.0039 0,0.0039 0,0.01171c0,4.02344 -3.27734,7.29688 -7.29687,7.29688c-4.02735,0 -7.30079,-3.27344 -7.30079,-7.29688c0,-0.66406 -0.53906,-1.19921 -1.19921,-1.19921c-0.66016,0 -1.19922,0.53515 -1.19922,1.19921c0,5.34766 4.35156,9.69532 9.69922,9.69532c1.78125,0 3.44921,-0.48828 4.88671,-1.33203c1.53516,1.67187 2.37891,3.8125 2.37891,6.04296zm0,0" fill-rule="nonzero" fill="#ffffff"/>
    <path id="svg_7" d="m25.53125,0c-3.74609,0 -6.87109,2.67187 -7.54688,6.26172c-0.39062,-0.06641 -0.76171,-0.09766 -1.125,-0.09766c-0.03125,0 -0.0625,0.00391 -0.09375,0.00391c-0.03906,0 -0.07031,-0.00391 -0.10156,-0.00391c-0.0664,0 -0.1289,0.00781 -0.1914,0.01953c-3.84766,0.19922 -6.92188,3.38672 -6.92188,7.28516c0,0.41406 0.03516,0.82422 0.12109,1.24609c-3.52343,0.52734 -6.23046,3.56641 -6.23046,7.23047c0,0.44141 0.04687,0.89453 0.14453,1.36328c-2.25782,1.83203 -3.58594,4.58984 -3.58594,7.53125c0,2.52734 1.00781,4.95313 2.80078,6.76953c-1.78125,2.07422 -2.75391,4.67188 -2.75391,7.38281c0,3.73438 1.78516,7.14063 4.82032,9.29688c-0.27344,0.96094 -0.38282,1.9375 -0.32032,2.91016c0.14844,2.32812 1.20313,4.46484 2.95704,6.0039c1.76171,1.54297 4.01562,2.30469 6.34375,2.15625c0.36328,-0.02344 0.73437,-0.07812 1.12109,-0.16015c1.70703,3.0664 4.94531,5 8.51562,5c5.375,0 9.75,-4.375 9.75,-9.75391l0,-52.73438c0.00391,-4.25 -3.45312,-7.71093 -7.70312,-7.71093zm5.30469,60.44531c0,4.05078 -3.29688,7.35156 -7.35157,7.35156c-2.96093,0 -5.61718,-1.75781 -6.77343,-4.48437c-0.19141,-0.45313 -0.63282,-0.73438 -1.10157,-0.73438c-0.125,0 -0.25,0.02344 -0.37109,0.0625c-0.58203,0.1875 -1.07422,0.29297 -1.54687,0.32422c-1.69922,0.10938 -3.32813,-0.44922 -4.60547,-1.56641c-1.26953,-1.11718 -2.03516,-2.66796 -2.14453,-4.35937c-0.0625,-0.92969 0.09765,-1.86719 0.48046,-2.79297c0.00391,-0.01562 0.00391,-0.03125 0.00391,-0.04297c1.07813,-2.44531 3.37891,-3.96094 6.07813,-3.96094c0.66796,0 1.20312,-0.53906 1.20312,-1.20312c0,-0.66406 -0.53516,-1.19922 -1.20312,-1.19922c-3.14454,0 -6,1.60547 -7.63672,4.19141c-2.16016,-1.71094 -3.42188,-4.26563 -3.42188,-7.03907c0,-2.23046 0.85156,-4.37109 2.38281,-6.04296c1.4375,0.84375 3.10157,1.33203 4.88282,1.33203c5.35156,0 9.69922,-4.34766 9.69922,-9.69532c0,-0.66406 -0.53516,-1.19921 -1.19922,-1.19921c-0.66016,0 -1.19532,0.53515 -1.19532,1.19921c0,4.02344 -3.27734,7.30079 -7.30468,7.30079c-4.01953,0 -7.29688,-3.27735 -7.29688,-7.30079c0,0 0,0 0,-0.00781c0.08594,-2.32812 1.26172,-4.48437 3.21094,-5.79687c0.44141,-0.29688 0.63281,-0.84766 0.47266,-1.35938c-0.17579,-0.55078 -0.25391,-1.01953 -0.25391,-1.47656c0,-2.70313 2.19141,-4.90234 4.95312,-4.90234c0.00391,0 0.00782,0 0.01954,0c0.07812,0.01171 0.16015,0.01953 0.24609,0.02734c0.39062,0.02344 0.75781,-0.13672 1.00391,-0.43359c0.24609,-0.29688 0.33203,-0.69141 0.23437,-1.06641c0,0 0,-0.01172 -0.00391,-0.02734c0,-0.02735 0.00391,-0.05079 0.00391,-0.07422c0.00391,-0.14453 -0.01562,-0.28516 -0.06641,-0.42188c-0.19531,-0.5664 -0.28906,-1.08203 -0.28906,-1.57812c0,-2.67578 2.15235,-4.85157 4.8125,-4.90625c2.66797,0.05468 4.8125,2.23047 4.8125,4.90625c0,0.66406 0.54297,1.19922 1.20313,1.19922c0.66406,0 1.19922,-0.53516 1.19922,-1.19922c0,-2.71094 -1.48829,-5.08203 -3.6875,-6.34375c0.29296,-2.67578 2.52734,-4.72266 5.24609,-4.72266c2.92578,0 5.30469,2.37891 5.30469,5.30859l0,52.73438zm0,0" fill-rule="nonzero" fill="#ffffff"/>
   </g>
  </g>
 </g>

</svg>