<svg width="800" height="600" xmlns="http://www.w3.org/2000/svg">
 <g>
  <title>Layer 1</title>
  <g>
   <g id="svg_8">
    <path fill="#ffffff" fill-rule="nonzero" d="m31.98828,0l-21.32422,0c-6.3789,0 -10.66406,4.28516 -10.66406,10.66406l0,44.32813c0,2.10937 0.78516,8.98437 10.89453,8.98437l53.08203,0l0,-63.97656l-31.98828,0zm-2.66797,2.66406l0,25.5l-6.52344,-5.9414l-7.24609,6.09765l0,-25.64844l13.77734,0l-0.00781,-0.00781zm-18.65625,0l2.21485,0l0,31.38281l9.84765,-8.28125l9.26172,8.42969l0,-31.53125l29.32422,0l0,43.98438l-50.64844,0c-3.39062,0 -6.14062,1.01172 -7.99219,2.78125l0,-38.76953c0,-4.85938 3.13282,-7.9961 7.99219,-7.9961zm0.23047,58.64844c-6.10937,0 -7.87891,-2.77344 -8.17187,-5.42969c0.0039,-4.11328 2.96875,-6.5664 7.9414,-6.5664l50.64844,0l0,11.99609l-50.41797,0zm0,0"/>
   </g>
  </g>
 </g>

</svg>