<svg width="800" height="600" xmlns="http://www.w3.org/2000/svg">
 <g>
  <title>Layer 1</title>
  <g>
   <g id="svg_9">
    <path fill="#ffffff" fill-rule="nonzero" d="m38.59766,65.8711c-0.92188,0 -1.67578,0.7539 -1.67578,1.67578l0,0.84375c0,0.92187 0.7539,1.67968 1.67578,1.67968c0.92187,0 1.67968,-0.75781 1.67968,-1.67968l0,-0.84375c0,-0.92188 -0.75781,-1.67578 -1.67968,-1.67578zm0,0"/>
    <path fill="#ffffff" fill-rule="nonzero" d="m10.90625,38.1836l-0.83984,0c-0.92188,0 -1.67578,0.7539 -1.67578,1.67578c0,0.92187 0.7539,1.67968 1.67578,1.67968l0.83984,0c0.92578,0 1.68359,-0.75781 1.68359,-1.67968c0,-0.92188 -0.75781,-1.67578 -1.68359,-1.67578zm0,0"/>
    <path fill="#ffffff" fill-rule="nonzero" d="m66.29297,41.53906l0.83594,0c0.92187,0 1.67968,-0.75781 1.67968,-1.67968c0,-0.92188 -0.75781,-1.67578 -1.67968,-1.67578l-0.83594,0c-0.92969,0 -1.68359,0.7539 -1.68359,1.67578c0,0.92187 0.7539,1.67968 1.68359,1.67968zm0,0"/>
    <path fill="#ffffff" fill-rule="nonzero" d="m19.63672,18.54688c-0.67188,-0.67188 -1.67969,-0.67188 -2.35156,0c-0.67188,0.67187 -0.67188,1.67968 0,2.35156l0.58984,0.58594c0.33203,0.33593 0.75391,0.5 1.17188,0.5c0.42187,0 0.83984,-0.16407 1.17578,-0.5c0.67187,-0.67188 0.67187,-1.67969 0,-2.35157l-0.58594,-0.58593zm0,0"/>
    <path fill="#ffffff" fill-rule="nonzero" d="m59.32422,58.23438c-0.66797,-0.67188 -1.67969,-0.67188 -2.35156,0c-0.67188,0.67187 -0.67188,1.67968 0,2.35156l0.58984,0.58594c0.33984,0.33593 0.75391,0.50781 1.17578,0.50781c0.41797,0 0.83985,-0.17188 1.17188,-0.50781c0.67187,-0.67188 0.67187,-1.67578 0,-2.34766l-0.58594,-0.58984zm0,0"/>
    <path fill="#ffffff" fill-rule="nonzero" d="m17.875,58.23438l-0.58984,0.58984c-0.67188,0.67188 -0.67188,1.67578 0,2.34766c0.33593,0.33593 0.75781,0.50781 1.17187,0.50781c0.42188,0 0.84375,-0.17188 1.17969,-0.50781l0.58594,-0.58594c0.67187,-0.67188 0.67187,-1.67969 0,-2.35156c-0.67188,-0.67188 -1.67578,-0.67188 -2.34766,0zm0,0"/>
    <path fill="#ffffff" fill-rule="nonzero" d="m57.5625,18.54688l-0.58984,0.58593c-0.67188,0.67188 -0.67188,1.67969 0,2.35157c0.33984,0.33593 0.75781,0.5 1.17968,0.5c0.41407,0 0.83594,-0.16407 1.17188,-0.5l0.58594,-0.58594c0.67187,-0.67188 0.67187,-1.67969 0,-2.35156c-0.67188,-0.67188 -1.67578,-0.67188 -2.34766,0zm0,0"/>
    <path fill="#ffffff" fill-rule="nonzero" d="m40.27734,31.63672l0,-17.79297c0,-0.92187 -0.75781,-1.67578 -1.67968,-1.67578c-0.92188,0 -1.67578,0.75391 -1.67578,1.67578l0,17.79297c-3.85938,0.75391 -6.71485,4.19922 -6.71485,8.22266c0,4.61718 3.77735,8.39062 8.39063,8.39062c4.61718,0 8.39062,-3.77344 8.39062,-8.39062c0,-4.02344 -2.85156,-7.46875 -6.71094,-8.22266zm-1.67968,13.25391c-2.76953,0 -5.03516,-2.26563 -5.03516,-5.03125c0,-2.76953 2.26563,-5.03516 5.03516,-5.03516c2.77343,0 5.03906,2.26563 5.03906,5.03516c0,2.76562 -2.26563,5.03125 -5.03906,5.03125zm0,0"/>
    <path fill="#ffffff" fill-rule="nonzero" d="m78.875,7.21875l-5.95703,-5.95703c-0.83984,-0.83984 -1.92969,-1.26172 -3.10547,-1.26172c-1.08984,0 -2.09375,0.50781 -2.84766,1.26172l-1.17968,1.17188c-0.83594,0.83984 -1.25782,1.93359 -1.25782,3.10546c0,1.09375 0.50391,2.09766 1.25782,2.85157l1.76172,1.76562l-2.09375,2.09375c-6.88672,-6.79687 -16.36329,-10.98828 -26.85547,-10.98828c-21.3125,0 -38.59766,17.28516 -38.59766,38.59766c0,21.3125 17.28516,38.60156 38.59766,38.60156c21.3125,0 38.60156,-17.28906 38.60156,-38.60156c0,-9.64844 -3.52734,-18.375 -9.39844,-25.17188l2.1836,-2.17969l1.76171,1.75782c0.83594,0.83984 1.84375,1.26172 2.9375,1.26172c1.08594,0 2.09766,-0.42188 2.9375,-1.26172l1.08594,-1.08594c0.83985,-0.75781 1.26172,-1.85156 1.26172,-3.02344c0.16797,-1.17578 -0.33984,-2.17969 -1.09375,-2.9375zm-5.03125,32.64063c0,19.46875 -15.77734,35.24218 -35.24609,35.24218c-19.46875,0 -35.24219,-15.77343 -35.24219,-35.24218c0,-19.46875 15.77344,-35.24219 35.24219,-35.24219c19.46875,0 35.24609,15.77344 35.24609,35.24219zm2.68359,-29.11719l-1.17187,1.17578c-0.33984,0.33203 -0.83984,0.33203 -1.17969,0l-6.03906,-6.04297c-0.16797,-0.16406 -0.16797,-0.33594 -0.25,-0.5039c0,-0.16797 0,-0.41797 0.25,-0.58985l1.25781,-1.2539c0.16797,-0.16797 0.33594,-0.16797 0.5,-0.25391c0.17188,0 0.42188,0 0.58985,0.25391l5.95703,5.95703c0,0 0,0 0.08593,0.08593c0.16407,0.08204 0.25391,0.33204 0.25391,0.5c0,0.17188 -0.08984,0.50391 -0.25391,0.67188zm0,0"/>
   </g>
  </g>
 </g>

</svg>